<svg width="24" height="24" viewBox="0 0 24 24" fill="none" xmlns="http://www.w3.org/2000/svg">
<g clip-path="url(#clip0)">
<path d="M22.674 0.000976562H1.32442C0.59335 0.000976562 -0.000198364 0.59334 -0.000198364 1.32559V22.6752C-0.000198364 23.4074 0.59335 24.0006 1.32442 24.0006H12.8184V14.7065H9.69101V11.084H12.8184V8.41261C12.8184 5.31328 14.7109 3.62471 17.4763 3.62471C18.8021 3.62471 19.939 3.72389 20.2706 3.76697V7.00659L18.3524 7.00738C16.8488 7.00738 16.5587 7.72225 16.5587 8.77064V11.0828H20.1461L19.677 14.7049H16.5583V23.9994H22.6736C23.4055 23.9994 23.9994 23.4055 23.9994 22.6752V1.3248C23.999 0.59334 23.4059 0.000976562 22.674 0.000976562Z" fill="white"/>
</g>
<defs>
<clipPath id="clip0">
<rect width="24.0004" height="24" fill="white" transform="translate(-0.000198364)"/>
</clipPath>
</defs>
</svg>
