<svg width="251" height="48" viewBox="0 0 251 48" fill="none" xmlns="http://www.w3.org/2000/svg">
<path d="M64.6677 32.6909H65.6877C66.1567 32.6909 66.485 32.5851 66.6726 32.3735C66.8836 32.1619 66.9892 31.821 66.9892 31.3508V16.3278C66.9892 15.8811 66.8836 15.5637 66.6726 15.3756C66.485 15.1641 66.1567 15.0583 65.6877 15.0583H64.6677V12.4486H81.5157V16.9979H78.139V16.2925C78.139 15.8459 78.0335 15.5285 77.8225 15.3404C77.6114 15.1288 77.2714 15.023 76.8025 15.023H70.7175V22.5345H76.8025V25.1441H70.7175V31.3861C70.7175 31.8563 70.8113 32.1972 70.9989 32.4088C71.2099 32.5969 71.5382 32.6909 71.9837 32.6909H73.0389V35.2653H64.6677V32.6909Z" fill="#20B74A"/>
<path d="M83.8343 32.6909H84.8544C85.3233 32.6909 85.6516 32.5851 85.8392 32.3735C86.0502 32.1619 86.1558 31.821 86.1558 31.3508V16.3278C86.1558 15.8811 86.0502 15.5637 85.8392 15.3756C85.6516 15.1641 85.3233 15.0583 84.8544 15.0583H83.8343V12.4486H92.1704V15.0583H91.1503C90.7048 15.0583 90.3765 15.1641 90.1655 15.3756C89.9779 15.5637 89.8841 15.8811 89.8841 16.3278V31.3861C89.8841 31.8563 89.9779 32.1972 90.1655 32.4088C90.3765 32.5969 90.7048 32.6909 91.1503 32.6909H92.1704V35.2653H83.8343V32.6909Z" fill="#20B74A"/>
<path d="M94.4825 32.6556H95.5025C95.9714 32.6556 96.2997 32.5616 96.4873 32.3735C96.6984 32.1619 96.8039 31.8328 96.8039 31.3861V16.3278C96.8039 15.8811 96.6984 15.5637 96.4873 15.3756C96.2997 15.1641 95.9714 15.0583 95.5025 15.0583H94.4825V12.4486H99.7233L110.451 29.1291V16.3278C110.451 15.8811 110.346 15.5637 110.134 15.3756C109.923 15.1641 109.595 15.0583 109.15 15.0583H108.094V12.4486H116.466V15.0583H115.41C114.965 15.0583 114.637 15.1641 114.426 15.3756C114.238 15.5637 114.144 15.8811 114.144 16.3278V35.2653H111.225L100.497 18.6201V31.3861C100.497 31.8328 100.603 32.1619 100.814 32.3735C101.025 32.5616 101.353 32.6556 101.798 32.6556H102.818V35.2653H94.4825V32.6556Z" fill="#20B74A"/>
<path d="M116.5 32.6909H117.59C118.13 32.6909 118.54 32.5969 118.821 32.4088C119.126 32.2207 119.361 31.8916 119.525 31.4214L126.243 12.4486H129.795L136.443 31.4214C136.607 31.8916 136.842 32.2207 137.147 32.4088C137.451 32.5969 137.874 32.6909 138.413 32.6909H139.468V35.2653H131.449V32.6909H133.207L131.66 28.177H124.344L122.796 32.6909H124.555V35.2653H116.5V32.6909ZM130.956 25.9552L128.037 17.3505L125.047 25.9552H130.956Z" fill="#20B74A"/>
<path d="M140.888 32.6556H141.908C142.377 32.6556 142.705 32.5616 142.893 32.3735C143.104 32.1619 143.209 31.8328 143.209 31.3861V16.3278C143.209 15.8811 143.104 15.5637 142.893 15.3756C142.705 15.1641 142.377 15.0583 141.908 15.0583H140.888V12.4486H146.128L156.856 29.1291V16.3278C156.856 15.8811 156.751 15.5637 156.54 15.3756C156.329 15.1641 156 15.0583 155.555 15.0583H154.5V12.4486H162.871V15.0583H161.816C161.37 15.0583 161.042 15.1641 160.831 15.3756C160.643 15.5637 160.549 15.8811 160.549 16.3278V35.2653H157.63L146.902 18.6201V31.3861C146.902 31.8328 147.008 32.1619 147.219 32.3735C147.43 32.5616 147.758 32.6556 148.204 32.6556H149.224V35.2653H140.888V32.6556Z" fill="#20B74A"/>
<path d="M178.681 17.4916V15.2346C177.625 14.7644 176.336 14.5293 174.812 14.5293C172.42 14.5293 170.556 15.3639 169.219 17.0331C167.906 18.7023 167.249 21.0181 167.249 23.9804C167.249 26.8721 167.965 29.1291 169.395 30.7513C170.849 32.3735 172.842 33.1846 175.374 33.1846C176.5 33.1846 177.496 33.0788 178.364 32.8672C179.255 32.6556 180.111 32.2912 180.932 31.774L182.303 33.9605C181.389 34.5717 180.463 35.0067 179.525 35.2653C178.61 35.5474 177.555 35.712 176.359 35.759L176.148 36.8875C177.156 37.0521 177.883 37.3812 178.329 37.8749C178.774 38.3921 178.997 39.0857 178.997 39.9556C178.997 41.037 178.599 41.8599 177.801 42.4241C177.004 43.0119 175.808 43.3058 174.214 43.3058C173.229 43.3058 172.349 43.153 171.576 42.8473V40.6609C172.256 40.9665 173.018 41.1193 173.862 41.1193C175.198 41.1193 175.867 40.6961 175.867 39.8498C175.867 39.2385 175.644 38.8036 175.198 38.545C174.776 38.2863 173.921 38.157 172.631 38.157L173.018 35.6532C170.016 35.23 167.695 33.9722 166.053 31.8798C164.435 29.7639 163.627 27.1307 163.627 23.9804C163.627 21.6294 164.037 19.5487 164.858 17.7384C165.678 15.9281 166.921 14.5058 168.586 13.4713C170.251 12.4369 172.326 11.9196 174.812 11.9196C176.476 11.9196 177.919 12.0842 179.138 12.4134C180.381 12.719 181.459 13.2127 182.374 13.8945V17.4916H178.681Z" fill="#20B74A"/>
<path d="M184.843 32.691H185.933C186.472 32.691 186.883 32.5969 187.164 32.4088C187.469 32.2208 187.703 31.8916 187.868 31.4214L194.586 12.4487H198.138L204.786 31.4214C204.95 31.8916 205.184 32.2208 205.489 32.4088C205.794 32.5969 206.216 32.691 206.755 32.691H207.811V35.2653H199.791V32.691H201.55L200.002 28.177H192.686L191.139 32.691H192.897V35.2653H184.843V32.691ZM199.299 25.9553L196.379 17.3505L193.39 25.9553H199.299Z" fill="#ABABAB"/>
<path d="M210.123 32.691H211.073C211.589 32.691 211.941 32.5852 212.128 32.3736C212.339 32.162 212.445 31.8328 212.445 31.3861V16.3279C212.445 15.8812 212.339 15.5638 212.128 15.3757C211.941 15.1641 211.589 15.0583 211.073 15.0583H210.123V12.4487H222.188C224.533 12.4487 226.362 13.0599 227.675 14.2825C229.011 15.4815 229.68 17.2095 229.68 19.4665C229.68 21.7234 229 23.5102 227.64 24.8268C226.303 26.1199 224.474 26.7664 222.153 26.7664H216.173V31.3861C216.173 31.8328 216.267 32.162 216.454 32.3736C216.666 32.5852 217.029 32.691 217.545 32.691H218.459V35.2653H210.123V32.691ZM221.66 24.1567C223.137 24.1567 224.228 23.7806 224.931 23.0283C225.658 22.2524 226.022 21.0652 226.022 19.4665C226.022 17.8443 225.682 16.704 225.002 16.0457C224.322 15.3874 223.208 15.0583 221.66 15.0583H216.173V24.1567H221.66Z" fill="#ABABAB"/>
<path d="M231.11 32.691H232.06C232.576 32.691 232.928 32.5852 233.115 32.3736C233.326 32.162 233.432 31.8328 233.432 31.3861V16.3279C233.432 15.8812 233.326 15.5638 233.115 15.3757C232.928 15.1641 232.576 15.0583 232.06 15.0583H231.11V12.4487H243.175C245.52 12.4487 247.349 13.0599 248.662 14.2825C249.998 15.4815 250.667 17.2095 250.667 19.4665C250.667 21.7234 249.987 23.5102 248.627 24.8268C247.29 26.1199 245.461 26.7664 243.14 26.7664H237.16V31.3861C237.16 31.8328 237.254 32.162 237.442 32.3736C237.653 32.5852 238.016 32.691 238.532 32.691H239.446V35.2653H231.11V32.691ZM242.647 24.1567C244.124 24.1567 245.215 23.7806 245.918 23.0283C246.645 22.2524 247.009 21.0652 247.009 19.4665C247.009 17.8443 246.669 16.704 245.989 16.0457C245.309 15.3874 244.195 15.0583 242.647 15.0583H237.16V24.1567H242.647Z" fill="#ABABAB"/>
<path fill-rule="evenodd" clip-rule="evenodd" d="M23.9373 44.0816C34.9991 44.0816 43.9664 35.0908 43.9664 24C43.9664 12.9092 34.9991 3.91837 23.9373 3.91837C12.8755 3.91837 3.90813 12.9092 3.90813 24C3.90813 35.0908 12.8755 44.0816 23.9373 44.0816ZM23.9373 48C37.1575 48 47.8745 37.2548 47.8745 24C47.8745 10.7452 37.1575 0 23.9373 0C10.7171 0 0 10.7452 0 24C0 37.2548 10.7171 48 23.9373 48Z" fill="#20B74A"/>
<path d="M16.6038 38.2817C15.1509 37.518 13.8156 36.6137 12.5979 35.5689C11.4202 34.5053 10.4563 33.403 9.70601 32.2618L11.2619 27.9759L15.9332 29.6806L14.9067 32.5084C15.4808 33.2183 16.2632 33.9041 17.254 34.5659C18.2448 35.2277 19.2984 35.7623 20.4148 36.1697C22.1776 36.813 23.648 36.9326 24.8261 36.5286C26.0149 36.0951 26.8606 35.1861 27.3632 33.8016C27.7161 32.8296 27.7604 31.9284 27.4962 31.0981C27.2614 30.2785 26.7888 29.4722 26.0785 28.6793C25.3683 27.8864 24.3468 26.8965 23.0143 25.7097C21.1503 24.062 19.6963 22.6141 18.6522 21.3658C17.6082 20.1174 16.906 18.8438 16.5458 17.5448C16.2257 16.227 16.3383 14.817 16.8836 13.3147C17.6535 11.1938 18.9682 9.77213 20.8275 9.04958C22.6975 8.29758 24.8612 8.20314 27.3185 8.76628L29.0829 3.90596L33.4016 5.48199L31.6693 10.2539C33.1436 10.9587 34.4455 11.8175 35.5751 12.8301C36.7154 13.8134 37.646 14.8702 38.3669 16.0005L36.8912 20.0655L32.2199 18.3609L33.1983 15.6656C32.1836 14.428 30.604 13.4179 28.4593 12.6352C26.7552 12.0134 25.2955 11.8643 24.08 12.188C22.8646 12.5117 21.9948 13.3952 21.4709 14.8386C21.1073 15.8401 21.111 16.7922 21.4821 17.6948C21.8531 18.5975 22.3657 19.385 23.0199 20.0574C23.6742 20.7298 24.7156 21.7103 26.1443 22.999C28.0564 24.6975 29.4917 26.1053 30.4503 27.2223C31.4089 28.3394 32.0483 29.5568 32.3685 30.8746C32.6993 32.1628 32.5653 33.6318 31.9665 35.2813C31.218 37.3433 29.8673 38.8186 27.9144 39.7071C25.9722 40.5662 23.6363 40.6312 20.9066 39.9019L19.1743 44.6738L14.8555 43.0978L16.6038 38.2817Z" fill="#20B74A"/>
</svg>
